<mxfile host="app.diagrams.net" agent="Mozilla/5.0 (Macintosh; Intel Mac OS X 10_15_7) AppleWebKit/537.36 (KHTML, like Gecko) Chrome/130.0.0.0 Safari/537.36" version="24.8.4">
  <diagram name="Page-1" id="wE83LsZzIeXdS4NZE4BO">
    <mxGraphModel dx="1363" dy="830" grid="1" gridSize="10" guides="1" tooltips="1" connect="1" arrows="1" fold="1" page="1" pageScale="1" pageWidth="827" pageHeight="1169" math="0" shadow="0">
      <root>
        <mxCell id="0" />
        <mxCell id="1" parent="0" />
        <mxCell id="3YFhJeniZxe8iRHY3lFi-444" value="" style="shape=table;startSize=0;container=1;collapsible=0;childLayout=tableLayout;fontSize=16;" parent="1" vertex="1">
          <mxGeometry x="256" y="199" width="320" height="268" as="geometry" />
        </mxCell>
        <mxCell id="3YFhJeniZxe8iRHY3lFi-445" value="" style="shape=tableRow;horizontal=0;startSize=0;swimlaneHead=0;swimlaneBody=0;strokeColor=inherit;top=0;left=0;bottom=0;right=0;collapsible=0;dropTarget=0;fillColor=none;points=[[0,0.5],[1,0.5]];portConstraint=eastwest;fontSize=16;" parent="3YFhJeniZxe8iRHY3lFi-444" vertex="1">
          <mxGeometry width="320" height="67" as="geometry" />
        </mxCell>
        <mxCell id="3YFhJeniZxe8iRHY3lFi-446" value="Pixel(0,0)" style="shape=partialRectangle;html=1;whiteSpace=wrap;connectable=0;strokeColor=inherit;overflow=hidden;fillColor=none;top=0;left=0;bottom=0;right=0;pointerEvents=1;fontSize=16;" parent="3YFhJeniZxe8iRHY3lFi-445" vertex="1">
          <mxGeometry width="107" height="67" as="geometry">
            <mxRectangle width="107" height="67" as="alternateBounds" />
          </mxGeometry>
        </mxCell>
        <mxCell id="3YFhJeniZxe8iRHY3lFi-447" value="Pixel(0,1)" style="shape=partialRectangle;html=1;whiteSpace=wrap;connectable=0;strokeColor=inherit;overflow=hidden;fillColor=none;top=0;left=0;bottom=0;right=0;pointerEvents=1;fontSize=16;" parent="3YFhJeniZxe8iRHY3lFi-445" vertex="1">
          <mxGeometry x="107" width="106" height="67" as="geometry">
            <mxRectangle width="106" height="67" as="alternateBounds" />
          </mxGeometry>
        </mxCell>
        <mxCell id="3YFhJeniZxe8iRHY3lFi-448" value="...." style="shape=partialRectangle;html=1;whiteSpace=wrap;connectable=0;strokeColor=inherit;overflow=hidden;fillColor=none;top=0;left=0;bottom=0;right=0;pointerEvents=1;fontSize=16;" parent="3YFhJeniZxe8iRHY3lFi-445" vertex="1">
          <mxGeometry x="213" width="107" height="67" as="geometry">
            <mxRectangle width="107" height="67" as="alternateBounds" />
          </mxGeometry>
        </mxCell>
        <mxCell id="3YFhJeniZxe8iRHY3lFi-146" value="" style="shape=tableRow;horizontal=0;startSize=0;swimlaneHead=0;swimlaneBody=0;strokeColor=inherit;top=0;left=0;bottom=0;right=0;collapsible=0;dropTarget=0;fillColor=none;points=[[0,0.5],[1,0.5]];portConstraint=eastwest;fontSize=16;" parent="3YFhJeniZxe8iRHY3lFi-444" vertex="1">
          <mxGeometry y="67" width="320" height="67" as="geometry" />
        </mxCell>
        <mxCell id="3YFhJeniZxe8iRHY3lFi-147" value="Pixel(1,0)" style="shape=partialRectangle;html=1;whiteSpace=wrap;connectable=0;strokeColor=inherit;overflow=hidden;fillColor=none;top=0;left=0;bottom=0;right=0;pointerEvents=1;fontSize=16;" parent="3YFhJeniZxe8iRHY3lFi-146" vertex="1">
          <mxGeometry width="107" height="67" as="geometry">
            <mxRectangle width="107" height="67" as="alternateBounds" />
          </mxGeometry>
        </mxCell>
        <mxCell id="3YFhJeniZxe8iRHY3lFi-148" value="Pixel(1,1)" style="shape=partialRectangle;html=1;whiteSpace=wrap;connectable=0;strokeColor=inherit;overflow=hidden;fillColor=none;top=0;left=0;bottom=0;right=0;pointerEvents=1;fontSize=16;" parent="3YFhJeniZxe8iRHY3lFi-146" vertex="1">
          <mxGeometry x="107" width="106" height="67" as="geometry">
            <mxRectangle width="106" height="67" as="alternateBounds" />
          </mxGeometry>
        </mxCell>
        <mxCell id="3YFhJeniZxe8iRHY3lFi-149" value="...." style="shape=partialRectangle;html=1;whiteSpace=wrap;connectable=0;strokeColor=inherit;overflow=hidden;fillColor=none;top=0;left=0;bottom=0;right=0;pointerEvents=1;fontSize=16;" parent="3YFhJeniZxe8iRHY3lFi-146" vertex="1">
          <mxGeometry x="213" width="107" height="67" as="geometry">
            <mxRectangle width="107" height="67" as="alternateBounds" />
          </mxGeometry>
        </mxCell>
        <mxCell id="3YFhJeniZxe8iRHY3lFi-449" value="" style="shape=tableRow;horizontal=0;startSize=0;swimlaneHead=0;swimlaneBody=0;strokeColor=inherit;top=0;left=0;bottom=0;right=0;collapsible=0;dropTarget=0;fillColor=none;points=[[0,0.5],[1,0.5]];portConstraint=eastwest;fontSize=16;" parent="3YFhJeniZxe8iRHY3lFi-444" vertex="1">
          <mxGeometry y="134" width="320" height="67" as="geometry" />
        </mxCell>
        <mxCell id="3YFhJeniZxe8iRHY3lFi-450" value="..." style="shape=partialRectangle;html=1;whiteSpace=wrap;connectable=0;strokeColor=inherit;overflow=hidden;fillColor=none;top=0;left=0;bottom=0;right=0;pointerEvents=1;fontSize=16;" parent="3YFhJeniZxe8iRHY3lFi-449" vertex="1">
          <mxGeometry width="107" height="67" as="geometry">
            <mxRectangle width="107" height="67" as="alternateBounds" />
          </mxGeometry>
        </mxCell>
        <mxCell id="3YFhJeniZxe8iRHY3lFi-451" value="..." style="shape=partialRectangle;html=1;whiteSpace=wrap;connectable=0;strokeColor=inherit;overflow=hidden;fillColor=none;top=0;left=0;bottom=0;right=0;pointerEvents=1;fontSize=16;" parent="3YFhJeniZxe8iRHY3lFi-449" vertex="1">
          <mxGeometry x="107" width="106" height="67" as="geometry">
            <mxRectangle width="106" height="67" as="alternateBounds" />
          </mxGeometry>
        </mxCell>
        <mxCell id="3YFhJeniZxe8iRHY3lFi-452" value="..." style="shape=partialRectangle;html=1;whiteSpace=wrap;connectable=0;strokeColor=inherit;overflow=hidden;fillColor=none;top=0;left=0;bottom=0;right=0;pointerEvents=1;fontSize=16;" parent="3YFhJeniZxe8iRHY3lFi-449" vertex="1">
          <mxGeometry x="213" width="107" height="67" as="geometry">
            <mxRectangle width="107" height="67" as="alternateBounds" />
          </mxGeometry>
        </mxCell>
        <mxCell id="3YFhJeniZxe8iRHY3lFi-453" value="" style="shape=tableRow;horizontal=0;startSize=0;swimlaneHead=0;swimlaneBody=0;strokeColor=inherit;top=0;left=0;bottom=0;right=0;collapsible=0;dropTarget=0;fillColor=none;points=[[0,0.5],[1,0.5]];portConstraint=eastwest;fontSize=16;" parent="3YFhJeniZxe8iRHY3lFi-444" vertex="1">
          <mxGeometry y="201" width="320" height="67" as="geometry" />
        </mxCell>
        <mxCell id="3YFhJeniZxe8iRHY3lFi-454" value="Pixel(23,0)" style="shape=partialRectangle;html=1;whiteSpace=wrap;connectable=0;strokeColor=inherit;overflow=hidden;fillColor=none;top=0;left=0;bottom=0;right=0;pointerEvents=1;fontSize=16;" parent="3YFhJeniZxe8iRHY3lFi-453" vertex="1">
          <mxGeometry width="107" height="67" as="geometry">
            <mxRectangle width="107" height="67" as="alternateBounds" />
          </mxGeometry>
        </mxCell>
        <mxCell id="3YFhJeniZxe8iRHY3lFi-455" value="..." style="shape=partialRectangle;html=1;whiteSpace=wrap;connectable=0;strokeColor=inherit;overflow=hidden;fillColor=none;top=0;left=0;bottom=0;right=0;pointerEvents=1;fontSize=16;" parent="3YFhJeniZxe8iRHY3lFi-453" vertex="1">
          <mxGeometry x="107" width="106" height="67" as="geometry">
            <mxRectangle width="106" height="67" as="alternateBounds" />
          </mxGeometry>
        </mxCell>
        <mxCell id="3YFhJeniZxe8iRHY3lFi-456" value="..." style="shape=partialRectangle;html=1;whiteSpace=wrap;connectable=0;strokeColor=inherit;overflow=hidden;fillColor=none;top=0;left=0;bottom=0;right=0;pointerEvents=1;fontSize=16;" parent="3YFhJeniZxe8iRHY3lFi-453" vertex="1">
          <mxGeometry x="213" width="107" height="67" as="geometry">
            <mxRectangle width="107" height="67" as="alternateBounds" />
          </mxGeometry>
        </mxCell>
        <mxCell id="3YFhJeniZxe8iRHY3lFi-584" value="" style="shape=table;startSize=0;container=1;collapsible=0;childLayout=tableLayout;fontSize=16;" parent="1" vertex="1">
          <mxGeometry x="577" y="199" width="320" height="268" as="geometry" />
        </mxCell>
        <mxCell id="3YFhJeniZxe8iRHY3lFi-585" value="" style="shape=tableRow;horizontal=0;startSize=0;swimlaneHead=0;swimlaneBody=0;strokeColor=inherit;top=0;left=0;bottom=0;right=0;collapsible=0;dropTarget=0;fillColor=none;points=[[0,0.5],[1,0.5]];portConstraint=eastwest;fontSize=16;" parent="3YFhJeniZxe8iRHY3lFi-584" vertex="1">
          <mxGeometry width="320" height="67" as="geometry" />
        </mxCell>
        <mxCell id="3YFhJeniZxe8iRHY3lFi-586" value="..." style="shape=partialRectangle;html=1;whiteSpace=wrap;connectable=0;strokeColor=inherit;overflow=hidden;fillColor=none;top=0;left=0;bottom=0;right=0;pointerEvents=1;fontSize=16;" parent="3YFhJeniZxe8iRHY3lFi-585" vertex="1">
          <mxGeometry width="107" height="67" as="geometry">
            <mxRectangle width="107" height="67" as="alternateBounds" />
          </mxGeometry>
        </mxCell>
        <mxCell id="3YFhJeniZxe8iRHY3lFi-587" value="..." style="shape=partialRectangle;html=1;whiteSpace=wrap;connectable=0;strokeColor=inherit;overflow=hidden;fillColor=none;top=0;left=0;bottom=0;right=0;pointerEvents=1;fontSize=16;" parent="3YFhJeniZxe8iRHY3lFi-585" vertex="1">
          <mxGeometry x="107" width="106" height="67" as="geometry">
            <mxRectangle width="106" height="67" as="alternateBounds" />
          </mxGeometry>
        </mxCell>
        <mxCell id="3YFhJeniZxe8iRHY3lFi-588" value="Pixel(0,1289)" style="shape=partialRectangle;html=1;whiteSpace=wrap;connectable=0;strokeColor=inherit;overflow=hidden;fillColor=none;top=0;left=0;bottom=0;right=0;pointerEvents=1;fontSize=16;" parent="3YFhJeniZxe8iRHY3lFi-585" vertex="1">
          <mxGeometry x="213" width="107" height="67" as="geometry">
            <mxRectangle width="107" height="67" as="alternateBounds" />
          </mxGeometry>
        </mxCell>
        <mxCell id="3YFhJeniZxe8iRHY3lFi-589" value="" style="shape=tableRow;horizontal=0;startSize=0;swimlaneHead=0;swimlaneBody=0;strokeColor=inherit;top=0;left=0;bottom=0;right=0;collapsible=0;dropTarget=0;fillColor=none;points=[[0,0.5],[1,0.5]];portConstraint=eastwest;fontSize=16;" parent="3YFhJeniZxe8iRHY3lFi-584" vertex="1">
          <mxGeometry y="67" width="320" height="67" as="geometry" />
        </mxCell>
        <mxCell id="3YFhJeniZxe8iRHY3lFi-590" value="..." style="shape=partialRectangle;html=1;whiteSpace=wrap;connectable=0;strokeColor=inherit;overflow=hidden;fillColor=none;top=0;left=0;bottom=0;right=0;pointerEvents=1;fontSize=16;" parent="3YFhJeniZxe8iRHY3lFi-589" vertex="1">
          <mxGeometry width="107" height="67" as="geometry">
            <mxRectangle width="107" height="67" as="alternateBounds" />
          </mxGeometry>
        </mxCell>
        <mxCell id="3YFhJeniZxe8iRHY3lFi-591" value="..." style="shape=partialRectangle;html=1;whiteSpace=wrap;connectable=0;strokeColor=inherit;overflow=hidden;fillColor=none;top=0;left=0;bottom=0;right=0;pointerEvents=1;fontSize=16;" parent="3YFhJeniZxe8iRHY3lFi-589" vertex="1">
          <mxGeometry x="107" width="106" height="67" as="geometry">
            <mxRectangle width="106" height="67" as="alternateBounds" />
          </mxGeometry>
        </mxCell>
        <mxCell id="3YFhJeniZxe8iRHY3lFi-592" value="Pixel(1,1289)" style="shape=partialRectangle;html=1;whiteSpace=wrap;connectable=0;strokeColor=inherit;overflow=hidden;fillColor=none;top=0;left=0;bottom=0;right=0;pointerEvents=1;fontSize=16;" parent="3YFhJeniZxe8iRHY3lFi-589" vertex="1">
          <mxGeometry x="213" width="107" height="67" as="geometry">
            <mxRectangle width="107" height="67" as="alternateBounds" />
          </mxGeometry>
        </mxCell>
        <mxCell id="3YFhJeniZxe8iRHY3lFi-601" value="" style="shape=tableRow;horizontal=0;startSize=0;swimlaneHead=0;swimlaneBody=0;strokeColor=inherit;top=0;left=0;bottom=0;right=0;collapsible=0;dropTarget=0;fillColor=none;points=[[0,0.5],[1,0.5]];portConstraint=eastwest;fontSize=16;" parent="3YFhJeniZxe8iRHY3lFi-584" vertex="1">
          <mxGeometry y="134" width="320" height="67" as="geometry" />
        </mxCell>
        <mxCell id="3YFhJeniZxe8iRHY3lFi-602" value="..." style="shape=partialRectangle;html=1;whiteSpace=wrap;connectable=0;strokeColor=inherit;overflow=hidden;fillColor=none;top=0;left=0;bottom=0;right=0;pointerEvents=1;fontSize=16;" parent="3YFhJeniZxe8iRHY3lFi-601" vertex="1">
          <mxGeometry width="107" height="67" as="geometry">
            <mxRectangle width="107" height="67" as="alternateBounds" />
          </mxGeometry>
        </mxCell>
        <mxCell id="3YFhJeniZxe8iRHY3lFi-603" value="..." style="shape=partialRectangle;html=1;whiteSpace=wrap;connectable=0;strokeColor=inherit;overflow=hidden;fillColor=none;top=0;left=0;bottom=0;right=0;pointerEvents=1;fontSize=16;" parent="3YFhJeniZxe8iRHY3lFi-601" vertex="1">
          <mxGeometry x="107" width="106" height="67" as="geometry">
            <mxRectangle width="106" height="67" as="alternateBounds" />
          </mxGeometry>
        </mxCell>
        <mxCell id="3YFhJeniZxe8iRHY3lFi-604" value="..." style="shape=partialRectangle;html=1;whiteSpace=wrap;connectable=0;strokeColor=inherit;overflow=hidden;fillColor=none;top=0;left=0;bottom=0;right=0;pointerEvents=1;fontSize=16;" parent="3YFhJeniZxe8iRHY3lFi-601" vertex="1">
          <mxGeometry x="213" width="107" height="67" as="geometry">
            <mxRectangle width="107" height="67" as="alternateBounds" />
          </mxGeometry>
        </mxCell>
        <mxCell id="3YFhJeniZxe8iRHY3lFi-605" value="" style="shape=tableRow;horizontal=0;startSize=0;swimlaneHead=0;swimlaneBody=0;strokeColor=inherit;top=0;left=0;bottom=0;right=0;collapsible=0;dropTarget=0;fillColor=none;points=[[0,0.5],[1,0.5]];portConstraint=eastwest;fontSize=16;" parent="3YFhJeniZxe8iRHY3lFi-584" vertex="1">
          <mxGeometry y="201" width="320" height="67" as="geometry" />
        </mxCell>
        <mxCell id="3YFhJeniZxe8iRHY3lFi-606" value="&lt;font style=&quot;font-size: 12px;&quot;&gt;...&lt;/font&gt;" style="shape=partialRectangle;html=1;whiteSpace=wrap;connectable=0;strokeColor=inherit;overflow=hidden;fillColor=none;top=0;left=0;bottom=0;right=0;pointerEvents=1;fontSize=16;" parent="3YFhJeniZxe8iRHY3lFi-605" vertex="1">
          <mxGeometry width="107" height="67" as="geometry">
            <mxRectangle width="107" height="67" as="alternateBounds" />
          </mxGeometry>
        </mxCell>
        <mxCell id="3YFhJeniZxe8iRHY3lFi-607" value="..." style="shape=partialRectangle;html=1;whiteSpace=wrap;connectable=0;strokeColor=inherit;overflow=hidden;fillColor=none;top=0;left=0;bottom=0;right=0;pointerEvents=1;fontSize=16;" parent="3YFhJeniZxe8iRHY3lFi-605" vertex="1">
          <mxGeometry x="107" width="106" height="67" as="geometry">
            <mxRectangle width="106" height="67" as="alternateBounds" />
          </mxGeometry>
        </mxCell>
        <mxCell id="3YFhJeniZxe8iRHY3lFi-608" value="Pixel(23,1289)" style="shape=partialRectangle;html=1;whiteSpace=wrap;connectable=0;strokeColor=inherit;overflow=hidden;fillColor=none;top=0;left=0;bottom=0;right=0;pointerEvents=1;fontSize=16;" parent="3YFhJeniZxe8iRHY3lFi-605" vertex="1">
          <mxGeometry x="213" width="107" height="67" as="geometry">
            <mxRectangle width="107" height="67" as="alternateBounds" />
          </mxGeometry>
        </mxCell>
        <mxCell id="3YFhJeniZxe8iRHY3lFi-609" value="&lt;font style=&quot;font-size: 36px;&quot;&gt;&lt;b&gt;24x1290 Pixel Matrix&lt;/b&gt;&lt;/font&gt;" style="text;html=1;align=center;verticalAlign=middle;resizable=0;points=[];autosize=1;strokeColor=none;fillColor=none;" parent="1" vertex="1">
          <mxGeometry x="400" y="120" width="370" height="60" as="geometry" />
        </mxCell>
        <mxCell id="Z6r1ynzK-tog6nZ2jysi-1" value="" style="endArrow=classic;html=1;rounded=0;exitX=0.233;exitY=1.03;exitDx=0;exitDy=0;exitPerimeter=0;strokeWidth=3;" edge="1" parent="1">
          <mxGeometry width="50" height="50" relative="1" as="geometry">
            <mxPoint x="310.5600000000002" y="467" as="sourcePoint" />
            <mxPoint x="310" y="623.99" as="targetPoint" />
          </mxGeometry>
        </mxCell>
        <mxCell id="Z6r1ynzK-tog6nZ2jysi-3" value="" style="endArrow=classic;html=1;rounded=0;exitX=0.233;exitY=1.03;exitDx=0;exitDy=0;exitPerimeter=0;strokeWidth=3;" edge="1" parent="1">
          <mxGeometry width="50" height="50" relative="1" as="geometry">
            <mxPoint x="416.18" y="467" as="sourcePoint" />
            <mxPoint x="415.61999999999983" y="623.99" as="targetPoint" />
          </mxGeometry>
        </mxCell>
        <mxCell id="Z6r1ynzK-tog6nZ2jysi-4" value="" style="endArrow=classic;html=1;rounded=0;exitX=0.233;exitY=1.03;exitDx=0;exitDy=0;exitPerimeter=0;strokeWidth=3;" edge="1" parent="1">
          <mxGeometry width="50" height="50" relative="1" as="geometry">
            <mxPoint x="520.5600000000002" y="467" as="sourcePoint" />
            <mxPoint x="520" y="623.99" as="targetPoint" />
          </mxGeometry>
        </mxCell>
        <mxCell id="Z6r1ynzK-tog6nZ2jysi-5" value="" style="endArrow=classic;html=1;rounded=0;exitX=0.233;exitY=1.03;exitDx=0;exitDy=0;exitPerimeter=0;strokeWidth=3;" edge="1" parent="1">
          <mxGeometry width="50" height="50" relative="1" as="geometry">
            <mxPoint x="630.5600000000002" y="467" as="sourcePoint" />
            <mxPoint x="630" y="623.99" as="targetPoint" />
          </mxGeometry>
        </mxCell>
        <mxCell id="Z6r1ynzK-tog6nZ2jysi-6" value="" style="endArrow=classic;html=1;rounded=0;exitX=0.233;exitY=1.03;exitDx=0;exitDy=0;exitPerimeter=0;strokeWidth=3;" edge="1" parent="1">
          <mxGeometry width="50" height="50" relative="1" as="geometry">
            <mxPoint x="738.1800000000002" y="467" as="sourcePoint" />
            <mxPoint x="737.62" y="623.99" as="targetPoint" />
          </mxGeometry>
        </mxCell>
        <mxCell id="Z6r1ynzK-tog6nZ2jysi-7" value="" style="endArrow=classic;html=1;rounded=0;exitX=0.233;exitY=1.03;exitDx=0;exitDy=0;exitPerimeter=0;strokeWidth=3;" edge="1" parent="1">
          <mxGeometry width="50" height="50" relative="1" as="geometry">
            <mxPoint x="840.5600000000002" y="467" as="sourcePoint" />
            <mxPoint x="840" y="623.99" as="targetPoint" />
          </mxGeometry>
        </mxCell>
        <mxCell id="Z6r1ynzK-tog6nZ2jysi-8" value="&lt;font style=&quot;font-size: 72px;&quot;&gt;ADC&lt;/font&gt;" style="rounded=0;whiteSpace=wrap;html=1;" vertex="1" parent="1">
          <mxGeometry x="260" y="627" width="637" height="170" as="geometry" />
        </mxCell>
      </root>
    </mxGraphModel>
  </diagram>
</mxfile>
